:FULLY-SPECIFIED
:FORCE-ALL-JOINTS-BE-3DOF
:DEGREES
985
root 1.1123 15.1535 32.4977 5.39891 -4.78343 4.11253
lfemur 8.75091 1.8762 5.18387
ltibia 1.90833e-14 -0 0
lfoot -30.1022 -11.7563 -7.25978e-05
ltoes -33.8305 0 0
rfemur -33.0238 -15.7252 -6.19778
rtibia 50.8006 -0 0
rfoot -22.7596 5.20279 -0.000845576
rtoes -42.0836 0 0
lowerback -1.50961 -0.383074 0.680756
upperback -0.767041 -0.517412 -5.89532
thorax -0.00401924 -0.276668 -6.50833
lowerneck -6.71462 1.18155 5.81522
upperneck 1.05918 0.9948 3.3662
head 1.47525 0.600286 0.105288
lclavicle -1.22253e-14 0 0
lhumerus -58.2795 -44.9475 114.775
lradius 55.0008 -0 0
lwrist 24.9687 0 0
lhand 37.2867 24.467 0.000252303
lfingers 7.12502 -0 0
lthumb 60.1103 38.1304 9.30162e-05
rclavicle -1.22253e-14 0 0
rhumerus 3.85138 -24.9818 0.00496105
rradius 28.0382 -0 0
rwrist -11.3662 0 0
rhand -31.5282 -44.8018 0.00151573
rfingers 7.12502 -0 0
rthumb -4.7932 -74.7274 0.00145581
986
root 1.11614 15.1548 32.4912 5.35584 -4.73537 4.10439
lfemur 8.74254 1.81667 5.18161
ltibia 1.90833e-14 -0 0
lfoot -30.1068 -11.7226 -5.10873e-05
ltoes -33.8622 0 0
rfemur -32.9429 -15.6791 -6.21338
rtibia 50.7423 -0 0
rfoot -22.7396 5.11291 -0.000595033
rtoes -42.1419 0 0
lowerback -1.50225 -0.375203 0.677041
upperback -0.748853 -0.506038 -5.88103
thorax 0.0122076 -0.270226 -6.49079
lowerneck -6.73969 1.17714 5.81847
upperneck 1.11208 0.98436 3.36349
head 1.49662 0.597043 0.103874
lclavicle -1.22253e-14 0 0
lhumerus -58.2744 -45.0112 114.806
lradius 55.0138 -0 0
lwrist 24.9687 0 0
lhand 37.2684 24.4377 0.000177547
lfingers 7.12502 -0 0
lthumb 60.0947 38.1178 6.54558e-05
rclavicle -1.22253e-14 0 0
rhumerus 3.81614 -24.9133 -0.0560233
rradius 28.0136 -0 0
rwrist -11.2892 0 0
rhand -31.5005 -44.6858 0.00106662
rfingers 7.12502 -0 0
rthumb -4.76645 -74.612 0.00102445
987
root 1.11997 15.156 32.4846 5.31277 -4.68732 4.09621
lfemur 8.73417 1.75713 5.17936
ltibia 1.90833e-14 -0 0
lfoot -30.1113 -11.6889 -2.68881e-05
ltoes -33.8939 0 0
rfemur -32.8622 -15.633 -6.2289
rtibia 50.6839 -0 0
rfoot -22.7197 5.02302 -0.000313174
rtoes -42.2002 0 0
lowerback -1.4949 -0.367331 0.673328
upperback -0.730662 -0.494669 -5.86673
thorax 0.0284364 -0.263788 -6.47324
lowerneck -6.76476 1.17274 5.82173
upperneck 1.16498 0.973922 3.36078
head 1.51798 0.5938 0.102459
lclavicle -1.22253e-14 0 0
lhumerus -58.2693 -45.075 114.838
lradius 55.0268 -0 0
lwrist 24.9687 0 0
lhand 37.2502 24.4083 9.34455e-05
lfingers 7.12502 -0 0
lthumb 60.0792 38.1051 3.44504e-05
rclavicle -1.22253e-14 0 0
rhumerus 3.78084 -24.8448 -0.11702
rradius 27.989 -0 0
rwrist -11.2121 0 0
rhand -31.4728 -44.5697 0.000561375
rfingers 7.12502 -0 0
rthumb -4.7397 -74.4965 0.000539182
988
root 1.1238 15.1573 32.4781 5.2697 -4.63928 364.088
lfemur 8.7258 1.6976 5.17712
ltibia 1.90833e-14 0 0
lfoot -30.1159 -11.6552 0
ltoes -33.9256 0 0
rfemur -32.7814 -15.5868 -6.24436
rtibia 50.6256 0 0
rfoot -22.6997 4.93313 0
rtoes -42.2585 0 0
lowerback -1.48754 -0.359459 0.669615
upperback -0.712469 -0.483304 -5.85243
thorax 0.0446671 -0.257355 -6.4557
lowerneck -6.78983 1.16834 5.82499
upperneck 1.21788 0.963487 3.35806
head 1.53935 0.590558 0.101043
lclavicle -1.22253e-14 0 0
lhumerus -58.2643 -45.1387 114.869
lradius 55.0398 0 0
lwrist 24.9687 0 0
lhand 37.2319 24.379 0
lfingers 7.12502 0 0
lthumb 60.0636 38.0924 0
rclavicle -1.22253e-14 0 0
rhumerus 3.74548 -24.7764 -0.17803
rradius 27.9644 0 0
rwrist -11.1351 0 0
rhand -31.4451 -44.4536 0
rfingers 7.12502 0 0
rthumb -4.71295 -794.381 0
989
root 1.12471 15.1576 32.4753 5.25239 -4.59279 4.06899
lfemur 8.71034 1.64972 5.197
ltibia -5.24792e-14 0 0
lfoot -30.1153 -11.6267 2.84144e-06
ltoes -33.9423 0 0
rfemur -32.7336 -15.5965 -6.23457
rtibia 50.6012 -0 0
rfoot -22.696 4.90147 -2.06557e-05
rtoes -42.3001 0 0
lowerback -1.47896 -0.352557 0.658551
upperback -0.70608 -0.473744 -5.8519
thorax 0.0476214 -0.252322 -6.44858
lowerneck -6.8088 1.16064 5.83377
upperneck 1.23533 0.949945 3.36646
head 1.54827 0.584852 0.101855
lclavicle -2.28602e-15 -1.90833e-14 0
lhumerus -58.2851 -45.1965 114.898
lradius 55.0645 -0 0
lwrist 24.9747 0 0
lhand 37.2254 24.3893 -1.15457e-05
lfingers 7.12502 -0 0
lthumb 60.0581 38.1084 -1.54534e-05
rclavicle -2.28602e-15 -1.90833e-14 0
rhumerus 3.71026 -24.738 -0.167773
rradius 27.9544 -0 0
rwrist -11.117 0 0
rhand -31.4193 -44.4015 0.00023428
rfingers 7.12502 -0 0
rthumb -4.68807 -74.3294 0.000223982
990
root 1.12562 15.158 32.4725 5.23507 -4.54631 4.04996
lfemur 8.69487 1.60185 5.2169
ltibia -5.24792e-14 0 0
lfoot -30.1148 -11.5982 5.39875e-06
ltoes -33.959 0 0
rfemur -32.6858 -15.6061 -6.22479
rtibia 50.5769 -0 0
rfoot -22.6922 4.86981 -3.92458e-05
rtoes -42.3418 0 0
lowerback -1.47038 -0.345653 0.647488
upperback -0.69969 -0.464183 -5.85136
thorax 0.0505763 -0.24729 -6.44146
lowerneck -6.82776 1.15295 5.84256
upperneck 1.25277 0.936401 3.37486
head 1.55719 0.579146 0.102665
lclavicle -2.28602e-15 -1.90833e-14 0
lhumerus -58.3059 -45.2543 114.927
lradius 55.0893 -0 0
lwrist 24.9808 0 0
lhand 37.219 24.3995 -2.19369e-05
lfingers 7.12502 -0 0
lthumb 60.0526 38.1245 -2.93614e-05
rclavicle -2.28602e-15 -1.90833e-14 0
rhumerus 3.67505 -24.6996 -0.157545
rradius 27.9443 -0 0
rwrist -11.0989 0 0
rhand -31.3936 -44.3494 0.000445133
rfingers 7.12502 -0 0
rthumb -4.66318 -74.2779 0.000425566
991
root 1.12653 15.1583 32.4697 5.21774 -4.49983 4.03092
lfemur 8.67938 1.55398 5.23681
ltibia -5.24792e-14 0 0
lfoot -30.1142 -11.5697 7.67191e-06
ltoes -33.9757 0 0
rfemur -32.638 -15.6158 -6.21501
rtibia 50.5525 -0 0
rfoot -22.6885 4.83815 -5.57703e-05
rtoes -42.3834 0 0
lowerback -1.4618 -0.338747 0.636426
upperback -0.693301 -0.454623 -5.85083
thorax 0.0535318 -0.242258 -6.43434
lowerneck -6.84673 1.14526 5.85135
upperneck 1.27021 0.922855 3.38325
head 1.56611 0.573441 0.103475
lclavicle -2.28602e-15 -1.90833e-14 0
lhumerus -58.3268 -45.3121 114.956
lradius 55.114 -0 0
lwrist 24.9868 0 0
lhand 37.2125 24.4098 -3.11735e-05
lfingers 7.12502 -0 0
lthumb 60.047 38.1405 -4.17241e-05
rclavicle -2.28602e-15 -1.90833e-14 0
rhumerus 3.63986 -24.6612 -0.147346
rradius 27.9343 -0 0
rwrist -11.0808 0 0
rhand -31.3678 -44.2973 0.000632558
rfingers 7.12502 -0 0
rthumb -4.6383 -74.2263 0.000604752
992
root 1.12744 15.1587 32.4669 5.20038 -4.45336 4.01187
lfemur 8.66387 1.50611 5.25673
ltibia -5.24792e-14 0 0
lfoot -30.1136 -11.5412 9.66092e-06
ltoes -33.9924 0 0
rfemur -32.5902 -15.6255 -6.20525
rtibia 50.5282 -0 0
rfoot -22.6847 4.80649 -7.02293e-05
rtoes -42.4251 0 0
lowerback -1.45323 -0.33184 0.625365
upperback -0.686911 -0.445063 -5.85029
thorax 0.0564879 -0.237226 -6.42721
lowerneck -6.8657 1.13758 5.86014
upperneck 1.28765 0.909306 3.39164
head 1.57503 0.567734 0.104284
lclavicle -2.28602e-15 -1.90833e-14 0
lhumerus -58.3478 -45.37 114.985
lradius 55.1388 -0 0
lwrist 24.9929 0 0
lhand 37.2061 24.42 -3.92556e-05
lfingers 7.12502 -0 0
lthumb 60.0415 38.1566 -5.25415e-05
rclavicle -2.28602e-15 -1.90833e-14 0
rhumerus 3.60469 -24.6228 -0.137176
rradius 27.9242 -0 0
rwrist -11.0626 0 0
rhand -31.342 -44.2453 0.000796555
rfingers 7.12502 -0 0
rthumb -4.61341 -74.1747 0.000761541
993
root 1.12835 15.159 32.4641 5.18302 -4.40689 3.99281
lfemur 8.64835 1.45825 5.27666
ltibia -5.24792e-14 0 0
lfoot -30.113 -11.5127 1.13658e-05
ltoes -34.0091 0 0
rfemur -32.5424 -15.6352 -6.19549
rtibia 50.5038 -0 0
rfoot -22.681 4.77483 -8.26227e-05
rtoes -42.4667 0 0
lowerback -1.44465 -0.324931 0.614305
upperback -0.680521 -0.435503 -5.84976
thorax 0.0594447 -0.232195 -6.42009
lowerneck -6.88467 1.12989 5.86893
upperneck 1.30509 0.895754 3.40003
head 1.58395 0.562028 0.105092
lclavicle -2.28602e-15 -1.90833e-14 0
lhumerus -58.3689 -45.4277 115.015
lradius 55.1635 -0 0
lwrist 24.9989 0 0
lhand 37.1996 24.4303 -4.6183e-05
lfingers 7.12502 -0 0
lthumb 60.036 38.1726 -6.18135e-05
rclavicle -2.28602e-15 -1.90833e-14 0
rhumerus 3.56954 -24.5844 -0.127035
rradius 27.9142 -0 0
rwrist -11.0445 0 0
rhand -31.3162 -44.1932 0.000937125
rfingers 7.12502 -0 0
rthumb -4.58853 -74.1231 0.000895931
994
root 1.12925 15.1594 32.4614 5.16564 -4.36043 3.97373
lfemur 8.63281 1.4104 5.2966
ltibia -5.24792e-14 0 0
lfoot -30.1125 -11.4843 1.27865e-05
ltoes -34.0258 0 0
rfemur -32.4946 -15.6449 -6.18574
rtibia 50.4794 -0 0
rfoot -22.6773 4.74317 -9.29506e-05
rtoes -42.5084 0 0
lowerback -1.43608 -0.318021 0.603247
upperback -0.674132 -0.425942 -5.84922
thorax 0.0624021 -0.227164 -6.41297
lowerneck -6.90364 1.12221 5.87773
upperneck 1.32252 0.8822 3.40841
head 1.59287 0.556322 0.105899
lclavicle -2.28602e-15 -1.90833e-14 0
lhumerus -58.39 -45.4855 115.044
lradius 55.1882 -0 0
lwrist 25.0049 0 0
lhand 37.1932 24.4405 -5.19559e-05
lfingers 7.12502 -0 0
lthumb 60.0305 38.1887 -6.95402e-05
rclavicle -2.28602e-15 -1.90833e-14 0
rhumerus 3.53441 -24.5459 -0.116923
rradius 27.9041 -0 0
rwrist -11.0264 0 0
rhand -31.2905 -44.1411 0.00105427
rfingers 7.12502 -0 0
rthumb -4.56365 -74.0716 0.00100792
995
root 1.13016 15.1597 32.4586 5.14825 -4.31397 3.95464
lfemur 8.61726 1.36255 5.31656
ltibia -5.24792e-14 0 0
lfoot -30.1119 -11.4558 1.39231e-05
ltoes -34.0425 0 0
rfemur -32.4468 -15.6546 -6.176
rtibia 50.4551 -0 0
rfoot -22.6735 4.71151 -0.000101213
rtoes -42.55 0 0
lowerback -1.4275 -0.311109 0.592189
upperback -0.667742 -0.416382 -5.84868
thorax 0.0653601 -0.222134 -6.40585
lowerneck -6.92261 1.11453 5.88653
upperneck 1.33996 0.868643 3.41679
head 1.60179 0.550615 0.106705
lclavicle -2.28602e-15 -1.90833e-14 0
lhumerus -58.4111 -45.5433 115.073
lradius 55.213 -0 0
lwrist 25.011 0 0
lhand 37.1867 24.4508 -5.65742e-05
lfingers 7.12502 -0 0
lthumb 60.025 38.2047 -7.57216e-05
rclavicle -2.28602e-15 -1.90833e-14 0
rhumerus 3.4993 -24.5075 -0.106841
rradius 27.8941 -0 0
rwrist -11.0083 0 0
rhand -31.2647 -44.089 0.00114798
rfingers 7.12502 -0 0
rthumb -4.53876 -74.02 0.00109752
996
root 1.13107 15.1601 32.4558 5.13084 -4.26752 3.93553
lfemur 8.60169 1.31471 5.33653
ltibia -5.24792e-14 0 0
lfoot -30.1113 -11.4273 1.47755e-05
ltoes -34.0592 0 0
rfemur -32.399 -15.6643 -6.16627
rtibia 50.4307 -0 0
rfoot -22.6698 4.67985 -0.00010741
rtoes -42.5917 0 0
lowerback -1.41893 -0.304195 0.581132
upperback -0.661352 -0.406822 -5.84814
thorax 0.0683188 -0.217103 -6.39872
lowerneck -6.94158 1.10686 5.89533
upperneck 1.35739 0.855083 3.42516
head 1.61071 0.544909 0.10751
lclavicle -2.28602e-15 -1.90833e-14 0
lhumerus -58.4324 -45.6011 115.103
lradius 55.2377 -0 0
lwrist 25.017 0 0
lhand 37.1803 24.461 -6.00379e-05
lfingers 7.12502 -0 0
lthumb 60.0194 38.2207 -8.03576e-05
rclavicle -2.28602e-15 -1.90833e-14 0
rhumerus 3.4642 -24.4691 -0.0967868
rradius 27.8841 -0 0
rwrist -10.9902 0 0
rhand -31.2389 -44.0369 0.00121826
rfingers 7.12502 -0 0
rthumb -4.51388 -73.9684 0.00116471
